<?xml version="1.0" encoding="UTF-8" standalone="no"?>
<svg
   xmlns:dc="http://purl.org/dc/elements/1.1/"
   xmlns:cc="http://creativecommons.org/ns#"
   xmlns:rdf="http://www.w3.org/1999/02/22-rdf-syntax-ns#"
   xmlns:svg="http://www.w3.org/2000/svg"
   xmlns="http://www.w3.org/2000/svg"
   xmlns:sodipodi="http://sodipodi.sourceforge.net/DTD/sodipodi-0.dtd"
   xmlns:inkscape="http://www.inkscape.org/namespaces/inkscape"
   width="200mm"
   height="200mm"
   viewBox="0 0 200 200"
   version="1.1"
   id="svg8"
   inkscape:version="1.0.2 (e86c870879, 2021-01-15)"
   sodipodi:docname="LOGO.svg"
   inkscape:export-filename="/home/bresilla/code/proj/warp/lyp/resources/LOGO.png"
   inkscape:export-xdpi="480"
   inkscape:export-ydpi="480">
  <defs
     id="defs2" />
  <sodipodi:namedview
     id="base"
     pagecolor="#ffffff"
     bordercolor="#666666"
     borderopacity="1.0"
     inkscape:pageopacity="0.0"
     inkscape:pageshadow="2"
     inkscape:zoom="0.2985397"
     inkscape:cx="2794.5594"
     inkscape:cy="1035.632"
     inkscape:document-units="mm"
     inkscape:current-layer="layer1"
     inkscape:document-rotation="0"
     showgrid="false"
     inkscape:window-width="3816"
     inkscape:window-height="2132"
     inkscape:window-x="10"
     inkscape:window-y="14"
     inkscape:window-maximized="1" />
  <metadata
     id="metadata5">
    <rdf:RDF>
      <cc:Work
         rdf:about="">
        <dc:format>image/svg+xml</dc:format>
        <dc:type
           rdf:resource="http://purl.org/dc/dcmitype/StillImage" />
        <dc:title />
      </cc:Work>
    </rdf:RDF>
  </metadata>
  <g
     inkscape:label="Layer 1"
     inkscape:groupmode="layer"
     id="layer1">
    <circle
       style="fill:#000000;stroke-width:0.142057;stroke-dasharray:0.142057, 0.14205699999999999;stop-color:#000000"
       id="path959"
       cx="100.09932"
       cy="99.947403"
       r="85.741066" />
    <path
       id="path1265"
       style="fill:#ff0000;stroke-width:0.302031"
       d="m 1.4736271,14.21358 c -0.00812,6.58e-4 -0.012581,0.0054 -0.012451,0.01413 0.011334,0.64183 4.2412222,10.172462 5.9553776,13.418768 4.2386703,8.027334 8.2361743,13.974634 14.0295913,20.871562 9.881529,11.763746 19.961758,20.365338 44.59143,38.050155 5.423572,3.894276 10.815844,7.941225 14.81942,11.122634 3.429053,2.724871 10.919587,9.328911 11.969761,10.553111 0.328214,0.38261 1.397264,1.51012 2.375437,2.5057 1.769675,1.80118 2.996848,3.50858 4.433104,6.16588 1.171393,2.16723 1.768313,3.94426 2.443113,7.27539 0.55819,2.75581 0.60606,3.60704 0.4596,8.22801 -0.25831,8.14959 -1.89108,15.10475 -5.993272,25.53197 -1.513551,3.84724 -5.566828,12.43131 -6.865384,14.5919 l 0.06171,0.0381 -5.44272,9.3748 6.219013,-5.65355 2.515649,-2.52755 c 0.23074,-0.32231 0.808074,-0.973 1.483836,-1.6623 6.281498,-6.40761 19.426318,-21.64816 23.970928,-27.79212 8.68833,-11.74598 14.63516,-22.90409 16.4884,-30.93741 2.45753,-10.65285 1.22486,-18.891523 -3.98325,-26.620915 -3.08536,-4.579016 -8.28877,-9.407159 -12.03851,-11.170197 -1.13089,-0.531801 -6.85801,-2.85532 -12.72711,-5.163816 C 85.288247,62.191819 69.603102,55.187685 51.486123,45.984073 27.121404,33.606542 12.22495,24.316733 3.8625986,16.284086 2.6222356,15.092626 1.5954081,14.204627 1.4736271,14.21358 Z M 10.33334,56.83672 c -0.0045,0.0022 -0.007,0.0068 -0.007,0.01414 0,0.755869 4.735013,9.393262 7.672534,13.996017 4.775134,7.482047 12.375405,16.578024 19.767346,23.656879 5.291191,5.06707 15.232418,13.307744 22.173641,18.380664 1.448219,1.05841 3.069666,2.24423 3.603217,2.6349 2.067941,1.51423 3.922719,2.80011 4.03792,2.80011 0.06628,0 1.835361,1.21261 3.931275,2.69467 2.095922,1.48207 4.063292,2.85205 4.372473,3.04438 0.309189,0.19232 2.568763,1.8113 5.021008,3.5972 6.936131,5.05139 11.174658,8.96853 13.360483,12.34848 l 0.720536,1.11463 0.385441,-1.11463 c 0.545148,-1.57686 0.749408,-7.39271 0.34538,-9.83123 -0.473125,-2.85565 -1.741749,-6.36364 -2.917869,-8.06797 -0.555098,-0.80439 -1.922812,-2.34894 -3.039673,-3.43263 -1.892756,-1.83651 -8.530042,-7.26444 -8.882991,-7.26444 -0.08697,0 -0.810909,-0.50039 -1.608886,-1.11208 -1.979685,-1.51753 -7.178669,-5.11527 -12.676222,-8.7725 C 50.970414,91.131154 42.01774,84.728073 32.017602,76.795485 24.875978,71.130412 15.50402,62.548119 11.642862,58.137778 10.964005,57.362387 10.40108,56.805087 10.33334,56.83672 Z m 153.06525,12.837018 c -0.63888,0.0044 -1.30948,0.01927 -2.01436,0.045 -7.21708,0.263636 -11.68414,0.968641 -23.6277,3.729613 l -6.58118,1.521545 2.98121,3.655688 c 5.35035,6.559395 8.2442,12.858452 9.22566,20.082831 0.44399,3.268085 0.18861,10.268705 -0.51752,14.185015 -1.29914,7.20508 -5.84288,17.42138 -11.78246,26.49233 -12.71031,15.49493 -26.962,34.29267 -41.433743,45.20534 23.053703,-9.41921 48.285023,-21.5837 62.914993,-42.90342 5.70681,-8.48591 9.80343,-18.70371 11.47985,-28.631 0.76921,-4.55503 1.70353,-7.26897 3.57127,-10.37694 2.28643,-3.804703 6.77746,-8.057953 11.40893,-10.804451 4.83337,-2.866223 15.75422,-5.145035 18.50167,-3.860747 l 0.80174,0.374764 -0.15754,-1.812742 c -0.60247,-6.931475 -7.11057,-10.682848 -17.92838,-10.334541 l -3.57127,0.114435 -0.14996,-0.891587 c -0.2235,-1.328143 -1.9314,-3.379849 -3.46679,-4.164155 -2.26281,-1.155894 -5.18223,-1.657544 -9.65442,-1.626965 z m -132.903261,31.474812 0.784955,1.26248 c 3.838562,6.1733 15.665633,20.61526 21.420624,26.15615 5.456046,5.25308 8.332589,7.77619 13.475251,11.82139 8.2315,6.47484 8.536661,6.74368 11.198882,9.85563 2.798057,3.27074 4.766323,6.63984 5.932641,10.15648 0.701359,2.11469 0.854671,3.10375 0.963599,6.21731 0.04058,1.16008 0.05425,1.97697 0.04006,2.55324 l 0.0038,-0.004 -0.0049,0.0269 c -0.01841,0.69647 -0.0798,1.02658 -0.195426,1.10436 l -0.816894,4.60706 1.825428,-4.44571 c 0.104517,-0.35881 0.306741,-0.8516 0.573288,-1.36599 3.409642,-6.58001 4.530661,-14.55891 2.800936,-19.9369 -2.820274,-8.76867 -11.974126,-17.40802 -31.60664,-29.8311 -8.514291,-5.38766 -18.920907,-12.48234 -22.450812,-15.30541 -1.295764,-1.03632 -2.713685,-2.1062 -3.15065,-2.37779 z" />
  </g>
</svg>
