<?xml version="1.0" encoding="UTF-8" standalone="no"?>
<svg
   xmlns:dc="http://purl.org/dc/elements/1.1/"
   xmlns:cc="http://creativecommons.org/ns#"
   xmlns:rdf="http://www.w3.org/1999/02/22-rdf-syntax-ns#"
   xmlns:svg="http://www.w3.org/2000/svg"
   xmlns="http://www.w3.org/2000/svg"
   xmlns:sodipodi="http://sodipodi.sourceforge.net/DTD/sodipodi-0.dtd"
   xmlns:inkscape="http://www.inkscape.org/namespaces/inkscape"
   width="200mm"
   height="200mm"
   viewBox="0 0 200 200"
   version="1.1"
   id="svg8"
   inkscape:version="1.0.2 (e86c870879, 2021-01-15)"
   sodipodi:docname="LOGO.svg"
   inkscape:export-filename="/home/bresilla/code/proj/warp/lyp/resources/LOGO.png"
   inkscape:export-xdpi="480"
   inkscape:export-ydpi="480">
  <defs
     id="defs2" />
  <sodipodi:namedview
     id="base"
     pagecolor="#ffffff"
     bordercolor="#666666"
     borderopacity="1.0"
     inkscape:pageopacity="0.0"
     inkscape:pageshadow="2"
     inkscape:zoom="0.84439779"
     inkscape:cx="215.07364"
     inkscape:cy="688.37676"
     inkscape:document-units="mm"
     inkscape:current-layer="layer1"
     inkscape:document-rotation="0"
     showgrid="false"
     inkscape:window-width="3816"
     inkscape:window-height="2132"
     inkscape:window-x="10"
     inkscape:window-y="2174"
     inkscape:window-maximized="1" />
  <metadata
     id="metadata5">
    <rdf:RDF>
      <cc:Work
         rdf:about="">
        <dc:format>image/svg+xml</dc:format>
        <dc:type
           rdf:resource="http://purl.org/dc/dcmitype/StillImage" />
        <dc:title />
      </cc:Work>
    </rdf:RDF>
  </metadata>
  <g
     inkscape:label="Layer 1"
     inkscape:groupmode="layer"
     id="layer1">
    <path
       id="path1259"
       style="fill:#ff0000;stroke-width:0.273047"
       d="m 2.7237179,32.271934 c -0.00799,4.95e-4 -0.012385,0.0045 -0.012255,0.01174 0.011156,0.532931 4.1745713,8.4465 5.8617889,11.142004 4.1720612,6.665336 8.1067442,11.603553 13.8091192,17.330282 9.726244,9.767788 19.648063,16.909948 43.890684,31.594181 5.338342,3.233533 10.645876,6.593835 14.586536,9.235449 3.375167,2.26254 10.747988,7.74607 11.781659,8.76255 0.323056,0.31769 1.375306,1.25389 2.338107,2.08056 1.741866,1.49558 2.949753,2.91328 4.363439,5.11971 1.152974,1.79952 1.740524,3.27504 2.404714,6.04097 0.54942,2.28823 0.59654,2.99505 0.45238,6.83198 -0.25425,6.76684 -1.86136,12.54191 -5.899086,21.19996 -1.586189,3.40124 -6.007396,11.26348 -6.971166,12.39685 -0.09629,0.11322 -4.059638,-1.32948 -4.319745,-1.57243 -0.123105,-0.11499 0.152858,-0.8223 0.613301,-1.57189 3.356059,-5.46357 4.459462,-12.08869 2.75692,-16.55421 -2.775957,-7.28091 -11.785956,-14.45442 -31.109948,-24.76967 -8.38049,-4.47354 -18.623569,-10.36446 -22.098002,-12.70855 -1.275401,-0.86049 -2.67104,-1.74883 -3.101138,-1.97434 l -0.781677,-0.41045 0.77262,1.04828 c 3.77824,5.12587 15.41945,17.11746 21.084003,21.71823 5.370305,4.36179 8.201643,6.45679 13.26349,9.81564 8.102143,5.37625 8.402509,5.59949 11.022893,8.18343 2.754087,2.7158 4.691422,5.51327 5.83941,8.43323 0.690339,1.75589 0.841241,2.57713 0.948457,5.16241 0.09775,2.35703 0.04705,3.0744 -0.216334,3.0744 -0.188951,0 -1.217005,-0.44145 -2.284824,-0.98157 -8.84846,-4.47562 -16.966081,-12.54146 -21.32698,-21.19035 l -0.914355,-1.81261 -5.945978,-3.15179 c -3.270479,-1.73347 -5.994083,-3.10403 -6.052547,-3.04557 -0.188043,0.18829 0.818494,3.44931 2.062096,6.67987 7.409328,19.24752 25.214779,33.55468 45.698617,36.71977 1.398866,0.21615 2.773613,0.40475 3.055314,0.41952 0.281708,0.0148 1.509372,-0.81893 2.728149,-1.85264 5.18628,-4.39874 9.91797,-7.33551 20.24371,-12.56444 13.60302,-6.88852 23.10473,-14.12958 30.17215,-22.99496 5.61712,-7.04611 9.64936,-15.53025 11.29943,-23.77316 0.75713,-3.78219 1.67677,-6.03566 3.51516,-8.6163 2.25049,-3.15915 6.67095,-6.690752 11.22963,-8.971251 4.75742,-2.37991 15.50665,-4.272076 18.21093,-3.205694 l 0.78914,0.311177 -0.15506,-1.505173 c -0.59301,-5.755409 -6.99883,-8.870287 -17.64665,-8.581076 l -3.51515,0.09501 -0.1476,-0.740311 c -0.21999,-1.1028 -1.90105,-2.80639 -3.41231,-3.457623 -2.54544,-1.096883 -5.935,-1.484587 -11.4854,-1.313555 -7.10367,0.218905 -11.50054,0.804291 -23.2564,3.096809 l -6.47775,1.263384 2.93435,3.035428 c 5.26628,5.446461 8.11465,10.676756 9.08069,16.675375 0.437,2.71358 0.18564,8.52641 -0.5094,11.77823 -1.27871,5.9826 -5.75106,14.46549 -11.59729,21.99738 -5.14781,6.63208 -18.88694,20.00093 -28.53153,27.7624 -2.046078,1.64657 -2.999094,2.25039 -3.410188,2.16115 -0.313789,-0.0681 -1.706263,-0.32398 -3.094211,-0.56898 -1.387948,-0.245 -2.523537,-0.53235 -2.523537,-0.63836 0,-0.10603 0.705903,-0.8001 1.568685,-1.54254 6.182781,-5.32042 19.121031,-17.97509 23.594221,-23.07662 8.5518,-9.75304 14.40518,-19.01794 16.22929,-25.68825 2.41891,-8.84537 1.20562,-15.686185 -3.92065,-22.10413 -3.03687,-3.802094 -8.15852,-7.811046 -11.84933,-9.274949 -1.11312,-0.441499 -6.75024,-2.370788 -12.5271,-4.287601 C 85.221207,72.1097 69.78255,66.293959 51.950276,58.651925 27.968445,48.37449 13.306085,40.660884 5.0751471,33.991137 3.8542762,33.001833 2.8435851,32.264501 2.7237179,32.271934 Z M 104.70425,58.156071 c -7.255381,-0.04298 -14.545171,1.218574 -21.107453,3.735173 -1.200377,0.460339 -2.529548,0.967201 -2.95354,1.126211 -0.424003,0.159007 -0.669539,0.386023 -0.54563,0.504392 0.12391,0.118354 3.233175,1.28213 6.909355,2.586011 l 6.683964,2.370378 3.37715,-0.448883 c 6.077734,-0.807868 13.513634,-0.481469 18.660104,0.819305 4.44634,1.12382 9.09721,2.955147 12.33741,4.857646 0.9003,0.52861 1.88997,0.972404 2.19957,0.985833 0.4785,0.02078 9.91079,-1.607721 11.79711,-2.036786 0.60277,-0.137101 0.58487,-0.180066 -0.43213,-1.0312 -6.67987,-5.590371 -15.4429,-9.949006 -24.06792,-11.970914 -4.16403,-0.976148 -8.50477,-1.471377 -12.85799,-1.497166 z m -93.260049,9.507132 c -0.0044,0.0017 -0.0069,0.0055 -0.0069,0.01174 0,0.627621 4.660603,7.799505 7.551962,11.621311 4.700094,6.212567 12.180928,13.765227 19.456706,19.643014 5.208041,4.207342 14.993044,11.049812 21.825187,15.262012 1.42546,0.87882 3.021427,1.86344 3.546593,2.18783 2.035444,1.25731 3.861074,2.32501 3.974464,2.32501 0.06524,0 1.80652,1.00686 3.869497,2.23747 2.062984,1.2306 3.999438,2.36814 4.30376,2.52784 0.30433,0.1597 2.528396,1.50397 4.942103,2.98686 6.827132,4.19432 10.999051,7.44683 13.150526,10.25331 l 0.709213,0.92552 0.379384,-0.92552 c 0.536581,-1.30931 0.737631,-6.13839 0.339952,-8.16316 -0.465689,-2.37114 -1.714377,-5.28392 -2.872015,-6.69908 -0.546374,-0.66791 -1.892595,-1.9504 -2.991905,-2.85021 -1.863012,-1.52492 -8.395994,-6.03189 -8.743396,-6.03189 -0.0856,0 -0.798167,-0.41548 -1.583603,-0.92339 C 77.347127,110.79182 72.229844,107.8045 66.818685,104.7678 51.442672,96.138896 42.630687,90.822225 32.7877,84.235561 25.758305,79.531681 16.533625,72.405547 12.733145,68.743509 12.064956,68.099679 11.510878,67.636935 11.444201,67.663203 Z M 166.68809,84.171512 a 0.85920583,3.7297465 75.435857 0 1 1.09713,0.315447 0.85920583,3.7297465 75.435857 0 1 -3.3942,1.769374 0.85920583,3.7297465 75.435857 0 1 -3.82527,0.106218 0.85920583,3.7297465 75.435857 0 1 3.3942,-1.769913 0.85920583,3.7297465 75.435857 0 1 2.72814,-0.421126 z m -9.19684,57.634708 -2.71429,2.59615 c -9.83432,9.40613 -20.50703,16.78021 -28.75746,19.86879 -4.36402,1.63369 -13.5659,7.21141 -17.73296,10.74917 l -0.68204,0.57911 2.33864,-0.14144 c 3.31982,-0.20085 8.79466,-1.36633 12.97949,-2.76321 14.23475,-4.75152 26.26199,-14.99173 33.19869,-28.26626 z" />
  </g>
</svg>
