<?xml version="1.0" encoding="UTF-8" standalone="no"?>
<svg
   xmlns:dc="http://purl.org/dc/elements/1.1/"
   xmlns:cc="http://creativecommons.org/ns#"
   xmlns:rdf="http://www.w3.org/1999/02/22-rdf-syntax-ns#"
   xmlns:svg="http://www.w3.org/2000/svg"
   xmlns="http://www.w3.org/2000/svg"
   xmlns:sodipodi="http://sodipodi.sourceforge.net/DTD/sodipodi-0.dtd"
   xmlns:inkscape="http://www.inkscape.org/namespaces/inkscape"
   width="200mm"
   height="200mm"
   viewBox="0 0 200 200"
   version="1.1"
   id="svg8"
   inkscape:version="1.0.2 (e86c870879, 2021-01-15)"
   sodipodi:docname="LOGO.svg"
   inkscape:export-filename="/home/bresilla/code/proj/warp/lyp/resources/LOGO.png"
   inkscape:export-xdpi="480"
   inkscape:export-ydpi="480">
  <defs
     id="defs2" />
  <sodipodi:namedview
     id="base"
     pagecolor="#ffffff"
     bordercolor="#666666"
     borderopacity="1.0"
     inkscape:pageopacity="0.0"
     inkscape:pageshadow="2"
     inkscape:zoom="1.1941588"
     inkscape:cx="355.9961"
     inkscape:cy="505.22237"
     inkscape:document-units="mm"
     inkscape:current-layer="layer1"
     inkscape:document-rotation="0"
     showgrid="false"
     inkscape:window-width="3816"
     inkscape:window-height="2132"
     inkscape:window-x="10"
     inkscape:window-y="2174"
     inkscape:window-maximized="1" />
  <metadata
     id="metadata5">
    <rdf:RDF>
      <cc:Work
         rdf:about="">
        <dc:format>image/svg+xml</dc:format>
        <dc:type
           rdf:resource="http://purl.org/dc/dcmitype/StillImage" />
        <dc:title />
      </cc:Work>
    </rdf:RDF>
  </metadata>
  <g
     inkscape:label="Layer 1"
     inkscape:groupmode="layer"
     id="layer1">
    <circle
       style="fill:#ff0000;stroke-width:0.142057;stroke-dasharray:0.142057, 0.142057;stop-color:#000000"
       id="path959"
       cx="100.09932"
       cy="99.947403"
       r="85.741066" />
    <path
       id="path1265"
       style="fill:#000000;stroke-width:0.27717"
       d="m 1.4736271,25.589832 c -0.00812,5.55e-4 -0.012581,0.0045 -0.012451,0.01191 0.011334,0.540519 4.2412222,8.56677 5.9553776,11.300656 4.2386703,6.760243 8.2361743,11.768779 14.0295913,17.577047 9.881529,9.906873 19.961758,17.15073 44.59143,32.044051 5.423572,3.279576 10.815844,6.687726 14.81942,9.366959 3.429053,2.294745 10.919587,7.856355 11.969761,8.887315 0.328214,0.32221 1.397264,1.27175 2.375437,2.11018 1.769675,1.51688 2.996848,2.95477 4.433104,5.19261 1.171393,1.82515 1.768313,3.32167 2.443113,6.12699 0.55819,2.32082 0.60606,3.03769 0.4596,6.92926 -0.25831,6.86319 -1.89108,12.7205 -5.993272,21.50183 -1.513551,3.23996 -5.566828,10.46906 -6.865384,12.28861 l 0.06171,0.032 -5.44272,7.89503 6.219013,-4.76116 2.515649,-2.12859 c 0.23074,-0.27144 0.808074,-0.81941 1.483836,-1.39992 6.281498,-5.39618 19.426318,-18.23105 23.970928,-23.4052 8.68833,-9.89192 14.63516,-19.28876 16.4884,-26.05404 2.45753,-8.97133 1.22486,-15.909537 -3.98325,-22.418867 -3.08536,-3.856232 -8.28877,-7.922267 -12.03851,-9.407014 C 117.82352,76.831653 112.0964,74.874894 106.2273,72.930787 85.288247,65.994849 69.603102,60.096297 51.486123,52.345448 27.121404,41.921673 12.22495,34.098233 3.8625986,27.333515 2.6222356,26.330124 1.5954081,25.582293 1.4736271,25.589832 Z M 10.33334,61.485037 c -0.0045,0.0018 -0.007,0.0057 -0.007,0.01191 0,0.636558 4.735013,7.910563 7.672534,11.786787 4.775134,6.301028 12.375405,13.961232 19.767346,19.922711 5.291191,4.267248 15.232418,11.207145 22.173641,15.479325 1.448219,0.89133 3.069666,1.88998 3.603217,2.21899 2.067941,1.27521 3.922719,2.35811 4.03792,2.35811 0.06628,0 1.835361,1.0212 3.931275,2.26933 2.095922,1.24813 4.063292,2.40186 4.372473,2.56383 0.309189,0.16197 2.568763,1.52539 5.021008,3.02939 6.936131,4.25405 11.174658,7.55287 13.360483,10.39931 l 0.720536,0.93869 0.385441,-0.93869 c 0.545148,-1.32795 0.749408,-6.22579 0.34538,-8.27939 -0.473125,-2.4049 -1.741749,-5.35916 -2.917869,-6.79447 -0.555098,-0.67742 -1.922812,-1.97817 -3.039673,-2.8908 -1.892756,-1.54662 -8.530042,-6.11778 -8.882991,-6.11778 -0.08697,0 -0.810909,-0.42139 -1.608886,-0.93653 C 77.28849,105.22777 72.089506,102.19791 66.591953,99.117974 50.970414,90.366196 42.01774,84.973822 32.017602,78.293369 24.875978,73.522512 15.50402,66.294908 11.642862,62.580726 10.964005,61.927728 10.40108,61.458396 10.33334,61.485037 Z m 153.06525,10.810732 c -0.63888,0.0037 -1.30948,0.01622 -2.01436,0.03789 -7.21708,0.222022 -11.68414,0.815744 -23.6277,3.140905 l -6.58118,1.281373 2.98121,3.078649 c 5.35035,5.524014 8.2442,10.828783 9.22566,16.912815 0.44399,2.752217 0.18861,8.647819 -0.51752,11.945949 -1.29914,6.06778 -5.84288,14.67146 -11.78246,22.3106 -12.71031,13.04909 -26.962,28.87967 -41.433743,38.0698 23.053703,-7.93241 48.285023,-18.17677 62.914993,-36.13123 5.70681,-7.14644 9.80343,-15.7514 11.47985,-24.11168 0.76921,-3.83604 1.70353,-6.12159 3.57127,-8.73898 2.28643,-3.204137 6.77746,-6.786024 11.40893,-9.098996 4.83337,-2.413798 15.75422,-4.332907 18.50167,-3.25134 l 0.80174,0.315609 -0.15754,-1.526606 c -0.60247,-5.837361 -7.11057,-8.996592 -17.92838,-8.703263 l -3.57127,0.09637 -0.14996,-0.750852 c -0.2235,-1.1185 -1.9314,-2.84635 -3.46679,-3.506855 -2.26281,-0.97344 -5.18223,-1.395906 -9.65442,-1.370154 z m -132.903261,26.506594 0.784955,1.06321 c 3.838562,5.198857 15.665633,17.361197 21.420624,22.027477 5.456046,4.42389 8.332589,6.54873 13.475251,9.95541 8.2315,5.45281 8.536661,5.67922 11.198882,8.29995 2.798057,2.75446 4.766323,5.59177 5.932641,8.55331 0.701359,1.78089 0.854671,2.61383 0.963599,5.23593 0.04058,0.97697 0.05425,1.66491 0.04006,2.15022 l 0.0038,-0.003 -0.0049,0.0227 c -0.01841,0.58653 -0.0798,0.86454 -0.195426,0.93004 l -0.816894,3.87985 1.825428,-3.74397 c 0.104517,-0.30217 0.306741,-0.71718 0.573288,-1.15037 3.409642,-5.54137 4.530661,-12.26083 2.800936,-16.78992 -2.820274,-7.38459 -11.974126,-14.66024 -31.60664,-25.12237 -8.514291,-4.53724 -18.920907,-10.51204 -22.450812,-12.88951 -1.295764,-0.87274 -2.713685,-1.773737 -3.15065,-2.002453 z" />
  </g>
</svg>
