<?xml version="1.0" encoding="UTF-8" standalone="no"?>
<svg
   xmlns:dc="http://purl.org/dc/elements/1.1/"
   xmlns:cc="http://creativecommons.org/ns#"
   xmlns:rdf="http://www.w3.org/1999/02/22-rdf-syntax-ns#"
   xmlns:svg="http://www.w3.org/2000/svg"
   xmlns="http://www.w3.org/2000/svg"
   xmlns:sodipodi="http://sodipodi.sourceforge.net/DTD/sodipodi-0.dtd"
   xmlns:inkscape="http://www.inkscape.org/namespaces/inkscape"
   width="200mm"
   height="200mm"
   viewBox="0 0 200 200"
   version="1.1"
   id="svg8"
   inkscape:version="1.0.2 (e86c870879, 2021-01-15)"
   sodipodi:docname="LOGO.svg"
   inkscape:export-filename="/home/bresilla/code/proj/warp/lyp/resources/LOGO.png"
   inkscape:export-xdpi="480"
   inkscape:export-ydpi="480">
  <defs
     id="defs2" />
  <sodipodi:namedview
     id="base"
     pagecolor="#ffffff"
     bordercolor="#666666"
     borderopacity="1.0"
     inkscape:pageopacity="0.0"
     inkscape:pageshadow="2"
     inkscape:zoom="1.1941588"
     inkscape:cx="968.1173"
     inkscape:cy="621.33139"
     inkscape:document-units="mm"
     inkscape:current-layer="layer1"
     inkscape:document-rotation="0"
     showgrid="false"
     inkscape:window-width="3816"
     inkscape:window-height="2132"
     inkscape:window-x="10"
     inkscape:window-y="2174"
     inkscape:window-maximized="1" />
  <metadata
     id="metadata5">
    <rdf:RDF>
      <cc:Work
         rdf:about="">
        <dc:format>image/svg+xml</dc:format>
        <dc:type
           rdf:resource="http://purl.org/dc/dcmitype/StillImage" />
        <dc:title />
      </cc:Work>
    </rdf:RDF>
  </metadata>
  <g
     inkscape:label="Layer 1"
     inkscape:groupmode="layer"
     id="layer1">
    <path
       style="fill:#ff0000;stroke-width:0.273371"
       d="m 95.428489,175.15788 c -20.525617,-3.16615 -38.367108,-17.47772 -45.791548,-36.73171 -1.246139,-3.23165 -2.255062,-6.49388 -2.066635,-6.68222 0.05858,-0.0585 2.787757,1.31236 6.064906,3.04642 l 5.958443,3.15283 0.915882,1.81337 c 4.369793,8.65181 12.503989,16.72003 21.370496,21.19716 1.069997,0.5403 2.10037,0.98236 2.289706,0.98236 0.263925,0 0.314449,-0.71761 0.2165,-3.07543 -0.107434,-2.58615 -0.258624,-3.40772 -0.950371,-5.16421 -1.150329,-2.92094 -3.09115,-5.71929 -5.850854,-8.43601 -2.625728,-2.58481 -2.926972,-2.80808 -11.045639,-8.18614 -5.072172,-3.35998 -7.909255,-5.45609 -13.290513,-9.81934 C 47.572755,122.65264 35.907735,110.6574 32.121791,105.5298 l -0.77425,-1.04862 0.78359,0.41016 c 0.430974,0.22558 1.829233,1.1144 3.107237,1.97517 3.481518,2.34488 13.745489,8.23755 22.143072,12.7126 19.363405,10.31872 28.391631,17.49485 31.17325,24.77821 1.706012,4.46702 0.600494,11.09422 -2.762412,16.55964 -0.461382,0.74983 -0.737932,1.45744 -0.614576,1.57248 0.260638,0.24303 4.232128,1.68629 4.328609,1.57303 0.965735,-1.13374 5.395972,-8.99869 6.985396,-12.40108 4.045963,-8.66097 5.656083,-14.43776 5.910853,-21.20687 0.14445,-3.83823 0.0975,-4.54528 -0.453,-6.83428 -0.66555,-2.76687 -1.25418,-4.24324 -2.409509,-6.04337 -1.416568,-2.20717 -2.627082,-3.62489 -4.372501,-5.12098 -0.964763,-0.82694 -2.018983,-1.76355 -2.342699,-2.08134 -1.035777,-1.01683 -8.423754,-6.50222 -11.805805,-8.76551 C 77.070349,98.96653 71.75192,95.604802 66.402691,92.37018 42.110627,77.681005 32.168626,70.536566 22.422544,60.76549 16.708539,55.036834 12.765783,50.097233 8.5852123,43.429654 6.8945536,40.733244 2.7228066,32.816643 2.7116272,32.283536 c -0.00207,-0.116196 1.0632187,0.652412 2.3681373,1.708027 8.2477255,6.671991 22.9401965,14.388572 46.9709405,24.669466 17.868644,7.644608 33.338785,13.462058 53.990815,20.302907 5.78865,1.91746 11.43739,3.847628 12.55277,4.289276 3.69834,1.464395 8.83038,5.474578 11.87344,9.277953 5.13673,6.420104 6.35262,13.263345 3.92878,22.111705 -1.82783,6.67255 -7.69314,15.94057 -16.26238,25.69689 -4.48231,5.10324 -17.44715,17.76177 -23.642539,23.08398 -0.864542,0.74269 -1.571891,1.43712 -1.571891,1.54318 0,0.10605 1.13791,0.39335 2.528688,0.63844 1.390779,0.24508 2.785949,0.50134 3.100377,0.56946 0.411932,0.0893 1.36689,-0.515 3.417135,-2.16213 9.66427,-7.76407 23.43155,-21.13737 28.58985,-27.77168 5.85816,-7.53442 10.33947,-16.02004 11.62079,-22.00465 0.69646,-3.25291 0.94842,-9.06792 0.51052,-11.78241 -0.96801,-6.000642 -3.82187,-11.23258 -9.09889,-16.680874 l -2.94076,-3.036213 6.49133,-1.263724 c 11.77984,-2.293292 16.18551,-2.87898 23.30366,-3.097959 5.56172,-0.17109 8.9581,0.216655 11.50873,1.313908 1.51435,0.651451 3.19892,2.355294 3.41936,3.458467 l 0.14808,0.741052 3.52221,-0.09547 c 10.66953,-0.28931 17.08856,2.826854 17.68277,8.584202 l 0.1554,1.505538 -0.79086,-0.311328 c -2.70979,-1.066742 -13.48115,0.826179 -18.24826,3.20689 -4.56799,2.281265 -8.99752,5.813871 -11.2526,8.974081 -1.84214,2.58152 -2.76332,4.83592 -3.52198,8.61939 -1.65345,8.24568 -5.69426,16.73245 -11.32284,23.78093 -7.08184,8.86836 -16.6027,16.11231 -30.23346,23.00315 -10.34681,5.23069 -15.08806,8.16839 -20.28493,12.56861 -1.22125,1.03405 -2.45143,1.86803 -2.733715,1.85327 -0.282274,-0.0148 -1.660096,-0.20373 -3.061816,-0.41995 z m 13.073371,-0.0893 c 4.17556,-3.53894 13.39622,-9.11891 17.76914,-10.75314 8.26725,-3.08962 18.96172,-10.46584 28.8161,-19.87514 l 2.71987,-2.59702 -1.37303,2.62306 c -6.95084,13.279 -19.00221,23.52249 -33.26599,28.27561 -4.19336,1.39736 -9.67963,2.5634 -13.00622,2.76432 l -2.3433,0.14154 z M 94.244249,136.75496 c -2.155863,-2.80742 -6.336165,-6.06135 -13.177221,-10.25709 -2.41863,-1.48338 -4.647005,-2.82778 -4.951958,-2.98754 -0.304943,-0.15975 -2.245774,-1.29766 -4.312967,-2.52867 -2.067182,-1.23103 -3.812002,-2.23822 -3.877374,-2.23822 -0.113622,0 -1.942783,-1.06844 -3.982379,-2.32617 -0.526237,-0.3245 -2.125456,-1.3093 -3.553823,-2.18842 C 53.54245,110.01523 43.737484,103.17041 38.518823,98.961653 31.228205,93.081889 23.73205,85.526934 19.02237,79.312274 16.125114,75.489185 11.455068,68.314825 11.455068,67.686992 c 0,-0.09909 0.584334,0.38198 1.298523,1.068964 3.808231,3.663271 13.051479,10.791395 20.09521,15.496859 9.863063,6.58888 18.693263,11.907422 34.100636,20.539235 5.422195,3.03772 10.549985,6.02633 12.502533,7.2868 0.78704,0.50809 1.501167,0.92379 1.586944,0.92379 0.348111,0 6.893977,4.50816 8.760789,6.03359 1.101551,0.90011 2.450774,2.18323 2.998264,2.85137 1.159999,1.41563 2.41146,4.32956 2.8781,6.7015 0.39849,2.02545 0.196879,6.85612 -0.340795,8.16586 l -0.380068,0.92584 z M 128.32128,73.720333 c -3.24681,-1.903139 -7.90729,-3.734914 -12.3627,-4.859113 -5.15697,-1.30121 -12.60807,-1.62786 -18.698203,-0.819722 l -3.383869,0.449035 -6.697605,-2.371485 c -3.683677,-1.304319 -6.799169,-2.468369 -6.92333,-2.586765 -0.124162,-0.118406 0.121878,-0.345434 0.546746,-0.504498 0.424857,-0.159063 1.756619,-0.665989 2.959445,-1.126482 10.521066,-4.027914 22.907996,-4.842727 34.034726,-2.238789 8.64261,2.022589 17.4236,6.382608 24.11709,11.974859 1.01907,0.85142 1.03707,0.894278 0.43308,1.031427 -1.89018,0.429207 -11.34162,2.058204 -11.82109,2.037416 -0.31023,-0.01343 -1.30216,-0.457094 -2.20429,-0.985883 z"
       id="path1259" />
  </g>
</svg>
