<?xml version="1.0" encoding="UTF-8" standalone="no"?>
<svg
   xmlns:dc="http://purl.org/dc/elements/1.1/"
   xmlns:cc="http://creativecommons.org/ns#"
   xmlns:rdf="http://www.w3.org/1999/02/22-rdf-syntax-ns#"
   xmlns:svg="http://www.w3.org/2000/svg"
   xmlns="http://www.w3.org/2000/svg"
   xmlns:sodipodi="http://sodipodi.sourceforge.net/DTD/sodipodi-0.dtd"
   xmlns:inkscape="http://www.inkscape.org/namespaces/inkscape"
   width="200mm"
   height="200mm"
   viewBox="0 0 200 200"
   version="1.1"
   id="svg8"
   inkscape:version="1.0.2 (e86c870879, 2021-01-15)"
   sodipodi:docname="LOGO.svg"
   inkscape:export-filename="/home/bresilla/code/proj/warp/lyp/resources/LOGO.png"
   inkscape:export-xdpi="480"
   inkscape:export-ydpi="480">
  <defs
     id="defs2" />
  <sodipodi:namedview
     id="base"
     pagecolor="#ffffff"
     bordercolor="#666666"
     borderopacity="1.0"
     inkscape:pageopacity="0.0"
     inkscape:pageshadow="2"
     inkscape:zoom="1.5669758"
     inkscape:cx="259.50634"
     inkscape:cy="453.56308"
     inkscape:document-units="mm"
     inkscape:current-layer="layer1"
     inkscape:document-rotation="0"
     showgrid="false"
     inkscape:window-width="3816"
     inkscape:window-height="2132"
     inkscape:window-x="10"
     inkscape:window-y="14"
     inkscape:window-maximized="1" />
  <metadata
     id="metadata5">
    <rdf:RDF>
      <cc:Work
         rdf:about="">
        <dc:format>image/svg+xml</dc:format>
        <dc:type
           rdf:resource="http://purl.org/dc/dcmitype/StillImage" />
        <dc:title />
      </cc:Work>
    </rdf:RDF>
  </metadata>
  <g
     inkscape:label="Layer 1"
     inkscape:groupmode="layer"
     id="layer1">
    <path
       style="fill:#00d4aa;stroke-width:0.874721"
       d="M 4.6497487,81.927829 C 8.892531,60.971216 17.899321,44.292674 32.870659,29.669025 53.102658,9.9068974 78.574939,0.85526049 108.21558,2.8950581 140.99082,5.150548 172.20055,26.067332 186.93224,55.65101 c 7.76782,15.599077 11.56355,33.387564 10.5007,49.21117 -1.69967,25.30492 -10.62546,45.38509 -27.94325,62.86341 -9.07028,9.15434 -14.77435,13.39011 -25.51896,18.94992 C 112.08556,203.17459 71.433884,199.78142 42.810823,178.23176 12.829032,155.65913 -2.4640258,117.06529 4.6497487,81.927829 Z M 7.5182929,111.7295 c 2.6235371,5.01918 5.9841871,8.95472 9.9486151,11.65043 3.227696,2.19477 5.030742,2.80473 17.271163,5.84231 18.237436,4.52585 30.280198,9.64627 44.813649,19.0541 8.027098,5.19614 11.995662,8.59912 26.03968,22.32883 13.39531,13.09548 16.98525,15.20131 26.71047,15.66823 3.62554,0.17406 8.21621,-0.12095 10.20149,-0.65546 8.0097,-2.1568 16.40902,-10.53271 18.78767,-18.73527 1.64921,-5.68723 1.15224,-14.19542 -1.28565,-22.01023 -7.17091,-22.9867 -8.95728,-40.05793 -6.36502,-60.826274 1.49409,-11.970235 2.36129,-16.026267 5.86397,-27.426588 3.46557,-11.27954 3.9651,-16.444181 2.18335,-22.57321 -5.72701,-19.700244 -27.48385,-27.2144438 -44.72491,-15.446736 -1.92438,1.313459 -7.82874,6.788383 -13.1208,12.166487 C 83.650699,51.2857 63.213901,63.174977 37.800613,69.186242 22.90364,72.709965 18.937869,74.284982 14.171088,78.570733 7.0631804,84.96135 4.3659822,91.57118 4.9236225,101.23284 c 0.2570571,4.45409 0.9935461,7.4335 2.5946704,10.49666 z M 62.043963,93.263983 c 0.200082,-1.443305 1.898308,-5.819167 3.773829,-9.72419 10.193298,-21.22334 35.565788,-28.674603 54.887798,-16.11914 16.95456,11.017111 22.75454,30.290586 14.63814,48.643147 -4.17998,9.45172 -14.71091,18.12081 -25.3922,20.90292 -26.583816,6.92422 -51.744072,-16.02777 -47.907567,-43.702737 z"
       id="path956" />
  </g>
</svg>
